<?xml version="1.0" encoding="UTF-8" standalone="no"?>
<!DOCTYPE svg PUBLIC "-//W3C//DTD SVG 1.1//EN" "http://www.w3.org/Graphics/SVG/1.1/DTD/svg11.dtd">
<svg width="100%" height="100%" viewBox="0 0 97 96" version="1.1" xmlns="http://www.w3.org/2000/svg" xmlns:xlink="http://www.w3.org/1999/xlink" xml:space="preserve" xmlns:serif="http://www.serif.com/" style="fill-rule:evenodd;clip-rule:evenodd;stroke-linejoin:round;stroke-miterlimit:2;">
    <g>
        <g>
            <g>
                <path d="M23.1,41.8C23.1,41.8 8.1,52.4 7.5,56.4L8.6,56.2C8.6,56.2 26.6,44.3 40.9,42.8L41.2,41L23.1,41.8Z" style="fill:rgb(202,51,73);fill-rule:nonzero;"/>
                <path d="M46.7,40.3L34.9,48.7L35.5,49.2C36,48.8 56.5,42.5 56.5,42.5L60.8,39.8C58,40.2 46.7,40.3 46.7,40.3Z" style="fill:rgb(202,51,73);fill-rule:nonzero;"/>
                <path d="M57,50.5C65.4,50.5 78,42.3 78,42.3L73.9,41.5C73.7,41.7 67.3,41.3 67.3,41.3L64.3,40.5L57.1,48.7L56.5,50.1C57,49.9 57,50.5 57,50.5Z" style="fill:rgb(202,51,73);fill-rule:nonzero;"/>
            </g>
            <path d="M84.4,76.8L81.8,77.5L69.8,77.2L62.3,71.4L53.2,73.7L42.7,72.8L36.8,79.2L25.8,82.5L20.3,80.8C20.1,80.6 20,80.6 20,80.6L22.5,86.7C22.5,86.7 28.1,92.7 31.2,93.4C34.3,94.1 40,93.3 44.2,92.7C48.4,92 51.8,90.5 53.2,88.1C54.6,85.6 54.8,84.9 54.8,84.9C54.8,84.9 58.8,90.6 62.3,91.3C65.8,92 76.1,88.4 76.1,88.4C76.1,88.4 82.4,86.7 83.5,84.5C84.6,82.3 87.5,75.2 87.5,75.2L84.4,76.8ZM21.5,81.7C21.4,81.7 21.4,81.6 21.3,81.6C20.9,81.2 20.5,81 20.3,80.8L21.5,81.7Z" style="fill:rgb(202,51,73);fill-rule:nonzero;"/>
            <g>
                <path d="M94.6,33.9C94.6,33.6 94.5,33.3 94.5,32.9C94.5,32.7 94.4,32.4 94.4,32.2C93.5,31.5 92.5,30.8 91.5,30.2C90.4,29.6 89.2,29 88,28.4C86.8,27.8 85.6,27.3 84.4,26.9C83.8,26.7 83.2,26.4 82.6,26.2C82,26 81.4,25.7 80.7,25.5C82,25.7 83.3,26 84.6,26.3C85.4,26.5 86.3,26.8 87.1,27C81.3,11.8 67.3,1.8 52,1.8C36.7,1.8 22.7,11.8 16.9,27.1C17.7,26.8 18.6,26.6 19.4,26.4C20.7,26.1 22,25.8 23.3,25.6C22.7,25.8 22.1,26 21.4,26.3C20.8,26.5 20.2,26.8 19.6,27C18.4,27.5 17.2,28 16,28.5C14.8,29 13.7,29.6 12.5,30.3C11.5,30.9 10.5,31.5 9.6,32.3C9.6,32.5 9.5,32.8 9.5,33C9.5,33.3 9.4,33.6 9.4,34C9.3,34.7 9.3,35.3 9.3,36C9.3,37.3 9.4,38.6 9.5,39.9C9.7,41.2 9.9,42.5 10.3,43.7C10.5,44.3 10.7,44.9 10.9,45.5C11,45.8 11.1,46.1 11.3,46.4C11.4,46.5 11.4,46.7 11.5,46.8L11.6,47C11.7,47 11.8,47.1 11.9,47.1L12.5,47.4C12.8,47.5 13.3,47.8 13.6,47.9L13.7,47.8L12.6,43.7C12.8,43.6 14.9,43.1 18.4,42.4C18.1,42.3 17.8,42.3 17.5,42.2C16.7,42 15.9,41.8 15.1,41.4C14.7,41.2 14.3,41.1 14,40.9C13.6,40.7 13.3,40.5 13,40.2C16.9,41.5 24.9,40.9 32,40.2C38.5,39.5 45.1,39.1 51.6,39.1C58.2,39.1 64.7,39.5 71.2,40.2C78.3,40.9 86.4,41.5 90.2,40.2C89.9,40.5 89.6,40.7 89.2,40.9C88.8,41.1 88.5,41.3 88.1,41.4C87.3,41.7 86.5,42 85.7,42.2C85.6,42.2 85.5,42.3 85.3,42.3C89.2,43 91.4,43.6 91.7,43.7L90.7,47.6L91.9,47C92,47 92.1,46.9 92.2,46.9L92.3,46.7C92.4,46.6 92.4,46.4 92.5,46.3C92.6,46 92.8,45.7 92.9,45.4C93.1,44.8 93.3,44.2 93.5,43.6C93.9,42.4 94.1,41.1 94.3,39.8C94.5,38.5 94.6,37.2 94.5,35.9C94.7,35.2 94.7,34.5 94.6,33.9Z" style="fill:rgb(242,235,172);fill-rule:nonzero;"/>
                <path d="M56.4,88.3C55.9,88.4 55.4,88.4 54.9,88.5L53.8,88.5C54.2,87.6 54.5,86.9 54.7,86.4C55.2,86.9 55.8,87.6 56.4,88.3Z" style="fill:rgb(230,203,172);fill-rule:nonzero;"/>
                <path d="M57.6,89.4C59.2,91 61.2,91.9 63.4,92C59.7,93.5 56.3,94.1 53.6,94.2C51,94.4 48.3,94.1 45.6,93.3C45.8,93.3 46,93.2 46.2,93.2C46.4,93.2 51.1,92.6 53.3,89.4L55,89.4C55.8,89.3 56.6,89.2 57.4,89.1C57.4,89.2 57.5,89.3 57.6,89.4Z" style="fill:rgb(230,203,172);fill-rule:nonzero;"/>
                <path d="M62.1,42.1C61.9,42.3 61.8,42.5 61.6,42.7C60.7,43.9 59.4,45.4 57.8,46.9C56,46.8 54.2,46.8 52.3,46.8C49.2,46.8 46.2,46.9 43.3,47C47.3,45.3 52.1,43.7 57.4,42.7C58.9,42.5 60.5,42.2 62.1,42.1Z" style="fill:rgb(101,108,103);fill-rule:nonzero;"/>
                <path d="M38.6,43.9C37.2,44.9 35.5,46.2 34,47.8C30,48.2 26.5,48.7 23.6,49.2C28,47 33.1,45.2 38.6,43.9Z" style="fill:rgb(101,108,103);fill-rule:nonzero;"/>
                <path d="M87.7,52.2L86.1,63.6L78.3,69.1L57.9,66.8L54.8,56.7C54.7,56.5 54.5,56.3 54.3,56.2C53.5,56.1 52.9,56 52.3,56C51.7,56 51.1,56.1 50.3,56.2C50,56.2 49.8,56.4 49.8,56.7L46.8,66.6L26.5,71.1L18.4,65.5L16.8,52.7C17.1,52.5 17.5,52.3 17.9,52.1C18.4,52 19,51.9 19.6,51.8L21.1,63.9C21.1,64.1 21.2,64.3 21.4,64.4L26.9,68.3C27,68.4 27.1,68.4 27.3,68.4L27.4,68.4L44,64.5C44.1,64.5 44.1,64.5 44.2,64.4C44.4,64.3 44.5,64.2 44.5,64L47.5,54.1C48.3,53.9 50.4,53.4 52.2,53.4C54,53.4 56.1,53.9 56.9,54.1L59.9,64C60,64.3 60.2,64.4 60.5,64.5L77.2,66.4C77.4,66.4 77.5,66.4 77.7,66.3L83.2,62.4C83.3,62.3 83.5,62.1 83.5,61.9L85,51.5C86,51.8 87,52 87.7,52.2Z" style="fill:rgb(101,108,103);fill-rule:nonzero;"/>
                <path d="M89.8,45L88.4,50.5C85.5,49.9 79,48.6 70.2,47.7C73.1,46.5 76,44.9 78.7,43C83.8,43.7 87.7,44.5 89.8,45Z" style="fill:rgb(101,108,103);fill-rule:nonzero;"/>
                <g>
                    <path d="M30.9,62.1C32,61.5 33.3,61.6 35.3,61.6L36.6,61.6C38.7,61.6 40.4,61.8 40.4,58.5C40.4,55.2 38.9,52.6 36.8,52.6C34.7,52.6 32.7,55.3 32.8,58.5C32.8,59.3 33,60 33.2,60.4C31.4,60.9 30.9,62 30.9,62.1ZM55.8,48.7C55,49.4 54.1,50 53.3,50.5L50.4,52.3C48.6,52.5 46.9,53 46.9,53C46.8,53 46.8,53 46.7,53.1C46.6,53.2 46.4,53.3 46.4,53.5L43.4,63.4L27.4,67L22.3,63.5L20.8,51.6C23.7,51.1 27.5,50.5 32.1,49.9C31.6,50.5 31.1,51.1 30.7,51.8L28,55.7L32,53C32.1,53 34.6,51.3 38.8,49.2C42.9,48.9 47.5,48.7 52.4,48.7C53.5,48.6 54.7,48.6 55.8,48.7Z" style="fill:rgb(228,201,162);fill-rule:nonzero;"/>
                    <path d="M73.4,60.7C73.4,60.6 72.9,59.3 71,59.5C71.2,59 71.3,58.4 71.3,57.5C71,54.2 69.2,51.7 67.1,51.7C65,51.8 63.7,54.5 63.8,57.7C63.9,61 65.7,60.9 67.7,60.9C70.4,60.9 72,60.1 73.4,60.7ZM83.6,51.4L82.2,61.5L77.1,65.1L61.1,63.3L58.1,53.5C58,53.3 57.9,53.1 57.6,53C57.5,53 55.5,52.4 53.4,52.2L53.8,52.2C54.1,52.2 59.7,51.5 66.3,49.2C73.6,49.7 79.5,50.6 83.6,51.4Z" style="fill:rgb(228,201,162);fill-rule:nonzero;"/>
                </g>
                <g>
                    <path d="M30.9,62.1C32,61.5 33.3,61.6 35.3,61.6L36.6,61.6C38.7,61.6 40.4,61.8 40.4,58.5C40.4,55.2 38.9,52.6 36.8,52.6C34.7,52.6 32.7,55.3 32.8,58.5C32.8,59.3 33,60 33.2,60.4C31.4,60.9 30.9,62 30.9,62.1ZM55.8,48.7C55,49.4 54.1,50 53.3,50.5L50.4,52.3C48.6,52.5 46.9,53 46.9,53C46.8,53 46.8,53 46.7,53.1C46.6,53.2 46.4,53.3 46.4,53.5L43.4,63.4L27.4,67L22.3,63.5L20.8,51.6C23.7,51.1 27.5,50.5 32.1,49.9C31.6,50.5 31.1,51.1 30.7,51.8L28,55.7L32,53C32.1,53 34.6,51.3 38.8,49.2C42.9,48.9 47.5,48.7 52.4,48.7C53.5,48.6 54.7,48.6 55.8,48.7Z" style="fill:rgb(198,178,153);fill-rule:nonzero;"/>
                    <path d="M73.4,60.7C73.4,60.6 72.9,59.3 71,59.5C71.2,59 71.3,58.4 71.3,57.5C71,54.2 69.2,51.7 67.1,51.7C65,51.8 63.7,54.5 63.8,57.7C63.9,61 65.7,60.9 67.7,60.9C70.4,60.9 72,60.1 73.4,60.7ZM83.6,51.4L82.2,61.5L77.1,65.1L61.1,63.3L58.1,53.5C58,53.3 57.9,53.1 57.6,53C57.5,53 55.5,52.4 53.4,52.2L53.8,52.2C54.1,52.2 59.7,51.5 66.3,49.2C73.6,49.7 79.5,50.6 83.6,51.4Z" style="fill:rgb(198,178,153);fill-rule:nonzero;"/>
                </g>
                <path d="M90.6,55.8C90.8,56 91,56.5 90.8,59C90.5,62 89.3,67.2 88.5,68.1C87.6,68.3 85.8,68.1 84.7,67.8C84.9,67 84.9,66.7 85.1,65.9L87,64.6C87.2,64.5 87.3,64.3 87.3,64.1L88.6,54.7C89.5,55.1 90.4,55.6 90.6,55.8Z" style="fill:rgb(230,203,172);fill-rule:nonzero;"/>
                <path d="M19.8,68.1C19.9,68.4 20,68.8 20.1,69.1C19.1,69.4 17,69.7 16,69.5C15.2,68.7 13.7,63.2 13.4,60.3C13.1,57.9 13.3,57.4 13.6,57.2C13.9,57 14.9,56.4 15.8,55.9L17,65.8C17,66 17.1,66.2 17.3,66.3L19.8,68.1Z" style="fill:rgb(230,203,172);fill-rule:nonzero;"/>
                <path d="M58.6,68.2L58.5,68.8C58.5,68.8 56.3,70.9 52.7,71.3C49.1,71.8 46.3,69.6 46.3,69.6C46.4,70 46.6,70.8 47.4,71.6C46.5,71.5 45.4,71.4 44.3,71.4L43.1,71.4C40.9,71.5 37.8,74.8 35.7,78.2C34.6,78.5 31.3,79.6 27.5,80.7C23.9,75.7 22.1,70.6 22,70.1C21.9,69.9 21.9,69.7 21.8,69.5L22.7,70.1L25,71.7L25.8,72.2C25.9,72.3 26,72.3 26.2,72.3L26.3,72.3L47.3,67.6C47.5,67.5 47.7,67.4 47.8,67.1L50.8,57.2C51.3,57.1 51.8,57.1 52.2,57.1C52.6,57.1 53,57.1 53.6,57.2L56.7,67.3C56.8,67.6 57,67.7 57.3,67.8L58.6,68.2Z" style="fill:rgb(230,203,172);fill-rule:nonzero;"/>
                <path d="M82.6,67.7L83.3,67.2C83.2,67.7 83.1,68.1 82.9,68.6C82,71.6 80.8,74.3 79.6,76.6L78.7,76.6C77.7,76.6 76.8,76.5 75.7,76.4C73.8,76.2 70.9,75.9 69.9,75.8C69.1,75.2 66.3,73 64,71.2C63.9,71.1 63.8,71.1 63.8,71C63.4,70.7 62.9,70.3 62,70.3C61.2,70.3 59.9,70.6 56.9,71.5C58.5,70.3 58.5,68.8 58.5,68.8L58.6,68.2L78.3,70.4C78.5,70.4 78.6,70.4 78.8,70.3L80.8,68.9L82.6,67.7Z" style="fill:rgb(230,203,172);fill-rule:nonzero;"/>
                <path d="M68.1,26.3C68.2,28.1 68.1,31.2 67.3,34.2L67.3,34.5C66.3,34.4 65.2,34.3 64.2,34.2C65.4,31.8 65.6,29.2 65.7,28.2C66.6,27.6 67.5,26.9 68.1,26.3Z" style="fill:rgb(234,212,152);fill-rule:nonzero;"/>
                <path d="M38.4,28.3C38.5,29.2 38.7,31.8 39.9,34.3C38.9,34.4 37.8,34.5 36.8,34.6L36.8,34.3C36,31.3 35.9,28.2 36,26.4C36.6,26.9 37.5,27.6 38.4,28.3Z" style="fill:rgb(234,212,152);fill-rule:nonzero;"/>
                <path d="M73.4,60.7C72,60 70.5,60.9 67.7,60.9C65.6,61 63.9,61 63.8,57.7C63.7,54.4 65,51.7 67.1,51.7C69.2,51.6 71.1,54.2 71.3,57.5C71.4,58.4 71.3,59 71,59.5C72.9,59.3 73.4,60.7 73.4,60.7ZM66.9,56C67.5,56 68,55.5 67.9,54.9C67.9,54.3 67.4,53.8 66.8,53.9C66.2,53.9 65.7,54.4 65.8,55C65.8,55.5 66.3,56 66.9,56Z" style="fill:rgb(45,49,54);fill-rule:nonzero;"/>
                <circle cx="66.8" cy="54.9" r="1.1" style="fill:rgb(237,246,249);"/>
                <path d="M40.3,58.5C40.3,61.8 38.6,61.6 36.5,61.6L35.2,61.6C33.2,61.6 31.9,61.5 30.8,62.1C30.8,62 31.3,60.9 33.1,60.5C32.9,60.1 32.8,59.4 32.7,58.6C32.6,55.3 34.6,52.7 36.7,52.7C38.9,52.6 40.3,55.2 40.3,58.5ZM37.1,56.7C37.7,56.7 38.1,56.2 38.1,55.6C38.1,55 37.6,54.6 37,54.6C36.4,54.6 36,55.1 36,55.7C36.1,56.3 36.6,56.8 37.1,56.7Z" style="fill:rgb(45,49,54);fill-rule:nonzero;"/>
                <circle cx="37.1" cy="55.7" r="1.1" style="fill:rgb(237,246,249);"/>
                <g opacity="0.8">
                    <path d="M24.5,36.3C24.5,36.3 24.8,32.1 25.5,30.5C25.8,29.7 27.9,29.1 29.5,28.8C31.1,28.4 33.6,27.7 34.1,29.9C34.6,32.1 35.4,33.7 35.9,34.5L35.2,25.3L24.3,27.9L23.6,36L23.9,36.6L24.5,36.3" style="fill:rgb(234,212,152);fill-rule:nonzero;"/>
                    <path d="M79.7,36.3C79.7,36.3 79.4,32.1 78.7,30.5C78.4,29.7 76.3,29.1 74.7,28.8C73.1,28.4 70.6,27.7 70.1,29.9C69.6,32.1 68.8,33.7 68.3,34.5L69,25.3L79.9,27.9L80.6,36L80.3,36.6L79.7,36.3" style="fill:rgb(234,212,152);fill-rule:nonzero;"/>
                </g>
                <path d="M64.3,8.9C64.3,8.9 64,30.9 58.9,30.9L45.5,30.9C40.3,30.9 40,8.9 40,8.9L37.5,16.4L37.5,26.6L39.3,28L40.1,32.4L41.2,35L63.2,35L64.2,33.2L65.1,30.1L65.2,28.1L67.6,21.2L64.3,8.9Z" style="fill:rgb(234,212,152);fill-opacity:0.75;fill-rule:nonzero;"/>
                <path d="M80.4,29.4C80.4,29.4 81.5,37 84.3,38.4C87.1,39.8 84.3,38.4 84.3,38.4L80.4,37.2L80.4,29.4Z" style="fill:rgb(234,212,152);fill-opacity:0.75;fill-rule:nonzero;"/>
                <path d="M23.6,29.4C23.6,29.4 22.5,37 19.7,38.4C16.9,39.8 19.7,38.4 19.7,38.4L23.6,37.2L23.6,29.4Z" style="fill:rgb(234,212,152);fill-opacity:0.75;fill-rule:nonzero;"/>
                <path d="M81.2,37.1C82.5,37.5 83.9,38 85.1,38.7C84.5,38.4 83.8,38.3 83.1,38.1C82.4,37.9 81.8,37.8 81.1,37.7C79.7,37.4 78.4,37.2 77,37.1C75.6,36.9 74.3,36.8 72.9,36.7C71.5,36.6 70.1,36.5 68.8,36.4C63.3,36.1 57.7,36 52.2,36C46.7,36 41.1,36.1 35.6,36.4C34.2,36.5 32.8,36.6 31.5,36.7C30.1,36.8 28.7,37 27.4,37.1C26,37.3 24.7,37.5 23.3,37.7C22.6,37.8 21.9,38 21.3,38.1C20.6,38.3 20,38.5 19.3,38.7C20.5,38 21.9,37.5 23.2,37.1C23.3,37.1 23.4,37 23.5,37L23.5,36.9C23.5,36.7 23,33.1 23.8,27.9C23.8,27.7 24,27.4 24.3,27.4L25.7,27C26,16.1 30.5,10.9 30.6,10.8C26.6,17.3 26.6,25 26.7,26.7L35.5,24.2L35.8,24.2C35.8,24.2 35.9,24.2 35.9,24.3C35.9,24.3 36.1,24.5 36.5,24.9C36.4,22 36.5,13.7 40.5,6.9C40.4,7.1 37.3,16.3 38.4,26.5C38.7,26.8 39.1,27.1 39.5,27.3C39.7,27.4 39.8,27.6 39.8,27.8C39.8,27.8 39.9,31.1 41.3,33.9L41.3,34C44.9,33.8 48.5,33.7 52.1,33.7C55.7,33.7 59.3,33.8 62.9,34.1C62.9,34.1 62.9,34 63,34C64.4,31.2 64.5,28 64.5,27.9C64.5,27.7 64.6,27.5 64.8,27.4C65.2,27.2 65.5,26.9 65.9,26.6C67,16.3 63.9,7.2 63.8,7C67.7,13.9 67.9,22.1 67.8,25C68.2,24.7 68.4,24.4 68.4,24.4C68.4,24.4 68.5,24.4 68.5,24.3L68.8,24.3L77.6,26.8C77.7,25 77.7,17.3 73.7,10.9C73.8,11.1 78.3,16.2 78.6,27.1L80,27.5C80.2,27.6 80.4,27.8 80.5,28C81.4,33.2 80.9,36.9 80.8,37L80.8,37.1C81,37 81.1,37.1 81.2,37.1ZM79.6,36.6C79.7,36 80,32.8 79.3,28.5L69.4,25.7C69.5,27.4 69.5,31 68.6,34.5L68.6,34.6L68.9,34.6C71.7,34.9 74.5,35.4 77.2,36C77.9,36.2 78.8,36.4 79.6,36.6ZM67.3,34.2C68.1,31.2 68.2,28.1 68.1,26.3C67.4,26.9 66.6,27.7 65.7,28.3C65.6,29.2 65.4,31.8 64.2,34.3C65.2,34.4 66.3,34.5 67.3,34.6L67.3,34.2ZM39.9,34.2C38.7,31.8 38.5,29.2 38.4,28.2C37.5,27.6 36.6,26.8 36,26.2C35.9,28 36,31.1 36.8,34.1L36.8,34.4C37.8,34.4 38.8,34.3 39.9,34.2ZM35.6,34.6L35.6,34.5C34.6,31 34.7,27.4 34.8,25.7L24.9,28.5C24.2,32.8 24.5,36 24.6,36.6C25.4,36.4 26.2,36.2 27.1,36C28.5,35.7 29.9,35.4 31.2,35.2C32.6,35 34,34.8 35.4,34.6L35.6,34.6Z" style="fill:rgb(45,49,54);fill-rule:nonzero;"/>
                <g id="XMLID_2_">
                    <g>
                        <path d="M62.5,9.2L62.5,17.4L56.7,17.4L56.7,15L55.4,15L55.4,26.1L57.4,26.1L57.4,32.3L47.1,32.3L47.1,26.1L49.1,26.1L49.1,15L47.8,15L47.8,17.4L42,17.4L42,9.2L62.5,9.2ZM60.7,15.6L60.7,10.9L43.7,10.9L43.7,15.6L46,15.6L46,13.2L50.8,13.2L50.8,27.8L48.8,27.8L48.8,30.5L55.5,30.5L55.5,27.8L53.5,27.8L53.5,13.2L58.3,13.2L58.3,15.6L60.7,15.6Z" style="fill:rgb(45,49,54);fill-rule:nonzero;"/>
                        <path d="M60.7,10.9L60.7,15.6L58.4,15.6L58.4,13.2L53.6,13.2L53.6,27.9L55.6,27.9L55.6,30.6L48.9,30.6L48.9,27.9L50.8,27.9L50.8,13.2L46,13.2L46,15.6L43.7,15.6L43.7,10.9L60.7,10.9Z" style="fill:rgb(202,51,73);fill-rule:nonzero;"/>
                    </g>
                </g>
                <path d="M14.8,45C15.7,44.8 16.8,44.6 18.2,44.3C17.3,44.9 16.3,45.6 15.2,46.5L14.8,45Z" style="fill:rgb(101,108,103);fill-rule:nonzero;"/>
                <path d="M46,67.5C46,67.5 46.2,69 44.1,69.7C42,70.4 28.4,74.4 26.9,74.2C25.4,74 21.4,71.4 21.4,71.4L20.4,68L26.2,71.6L46,67.5Z" style="fill:rgb(198,178,153);fill-rule:nonzero;"/>
                <path d="M58.1,67.3C58.1,67.3 57.9,68.8 60.1,69.4C62.3,70 76,73.4 77.5,73.1C79,72.8 82.8,70 82.8,70L83.6,66.6L78.3,69.8L58.1,67.3Z" style="fill:rgb(198,178,153);fill-rule:nonzero;"/>
                <path d="M13.7,64.7C13.7,64.7 15.6,68.5 18.6,67.2L20.8,68L20.6,69.6L16,70.2L14.8,69.5L13.7,64.7Z" style="fill:rgb(198,178,153);fill-rule:nonzero;"/>
                <path d="M90.6,63.7C90.6,63.7 87.5,67.6 84.5,66.3L83.5,66.9L83.7,68.5L88.3,69.1L89.5,68.4L90.6,63.7Z" style="fill:rgb(198,178,153);fill-rule:nonzero;"/>
                <path d="M43.1,93.2C43.1,93.2 54.2,98.8 66.8,91.2L62.8,90.9C62.8,90.9 54,94.4 47,92.5L43.1,93.2Z" style="fill:rgb(198,178,153);fill-rule:nonzero;"/>
                <path d="M54.4,82.9L55.2,83.8C55.2,83.8 56.9,85.9 59,87.9C60.4,89.3 62.1,90 64,90C64.7,90 65.3,89.9 66,89.7C66.6,89.5 67.4,89.4 68.1,89.2C70.7,88.6 73.6,87.9 75.1,87.5C75.4,87.4 75.7,87.3 76,87.3C77.9,86.9 80.5,86.3 81.9,83.5C82.9,81.4 84.3,78.7 85.4,76.8C84.5,77.2 83.6,77.7 82.9,78C81.9,78.5 80.5,78.8 78.8,78.8C77.8,78.8 76.7,78.7 75.6,78.6C73.3,78.4 69.5,77.9 69.5,77.9L69.2,77.9L69,77.7C69,77.7 65.6,75 62.9,72.9C62.8,72.8 62.7,72.7 62.6,72.7C62.3,72.5 62.3,72.5 62.1,72.5C61.2,72.5 58.7,73.3 53.2,75L52.8,75L52.5,74.9C52.5,74.9 48.8,73.5 44.5,73.5L43.4,73.5C43,73.5 40.5,74.7 37.4,79.6L37.2,80L36.8,80.1C36.7,80.1 31.4,81.9 25.7,83.5L25.3,83.6L25,83.4C25,83.4 22.7,82.3 20.6,81.4C21.8,83.1 23.2,85.2 24.5,86.9C26.8,89.8 29.6,92.5 35.1,92.5C35.8,92.5 36.5,92.5 37.3,92.4C42.9,91.8 44.3,91.5 45.1,91.4C45.4,91.4 45.6,91.3 45.8,91.3C45.8,91.3 50.4,90.7 51.7,87.8C53,84.8 53.3,84.1 53.3,84.1L53.8,82.9C53.8,82.9 53.9,82.6 54,82.5C54.2,82.6 54.4,82.9 54.4,82.9ZM19.6,26.9C18.4,27.4 17.2,27.9 16,28.5C14.8,29 13.7,29.6 12.5,30.3C11.5,30.9 10.5,31.5 9.6,32.3C9.6,32.5 9.5,32.8 9.5,33C9.5,33.3 9.4,33.6 9.4,34C9.3,34.7 9.3,35.3 9.3,36C9.3,37.3 9.4,38.6 9.5,39.9C9.7,41.2 9.9,42.5 10.3,43.7C10.5,44.3 10.7,44.9 10.9,45.5C11,45.8 11.1,46.1 11.3,46.4C11.4,46.5 11.4,46.7 11.5,46.8L11.6,47C11.7,47.1 11.8,47.1 11.9,47.1L12.5,47.4C12.8,47.6 13.3,47.8 13.6,47.9L13.7,47.8L12.6,43.7C12.8,43.6 14.9,43.1 18.4,42.4C18.1,42.3 17.8,42.3 17.5,42.2C16.7,42 15.9,41.8 15.1,41.4C14.7,41.2 14.3,41.1 14,40.9C13.6,40.7 13.3,40.5 13,40.2C16.9,41.5 24.9,40.9 32,40.2C38.5,39.5 45.1,39.1 51.6,39.1C58.2,39.1 64.7,39.5 71.2,40.2C78.3,40.9 86.4,41.5 90.2,40.2C89.9,40.5 89.6,40.7 89.2,40.9C88.8,41.1 88.5,41.3 88.1,41.4C87.3,41.7 86.5,42 85.7,42.2C85.6,42.2 85.5,42.3 85.3,42.3C89.2,43 91.4,43.6 91.7,43.7L90.7,47.6L91.9,47C92,47 92.1,46.9 92.2,46.9L92.3,46.7C92.4,46.6 92.4,46.4 92.5,46.3C92.6,46 92.8,45.7 92.9,45.4C93.1,44.8 93.3,44.2 93.5,43.6C93.9,42.4 94.1,41.1 94.3,39.8C94.5,38.5 94.6,37.2 94.5,35.9C94.5,35.2 94.5,34.6 94.4,33.9C94.4,33.6 94.3,33.3 94.3,32.9C94.3,32.7 94.2,32.4 94.2,32.2C93.3,31.5 92.3,30.8 91.3,30.2C90.2,29.6 89,29 87.8,28.4C86.6,27.8 85.4,27.3 84.2,26.8C83.6,26.6 83,26.3 82.4,26.1C81.8,25.9 81.2,25.6 80.5,25.4C81.8,25.6 83.1,25.9 84.4,26.2C85.2,26.4 86.1,26.7 86.9,26.9C81.3,11.8 67.3,1.8 52,1.8C36.7,1.8 22.7,11.8 16.9,27.1C17.7,26.8 18.6,26.6 19.4,26.4C20.7,26.1 22,25.8 23.3,25.6C22.7,25.8 22.1,26 21.4,26.3C20.8,26.4 20.2,26.7 19.6,26.9ZM96.6,35.8C96.7,37.2 96.6,38.6 96.5,40C96.4,41.4 96.1,42.8 95.7,44.2C95.5,44.9 95.3,45.6 95,46.2C94.9,46.5 94.7,46.9 94.6,47.2C94.5,47.4 94.4,47.5 94.3,47.7L94.2,47.9C94.1,48 94.1,48.1 94,48.2L93.9,48.4L92.5,49.1C92.1,49.3 91.7,49.4 91.2,49.6C90.9,49.7 90.6,49.8 90.4,49.9L89.7,52.6C89.7,52.6 89.5,52.5 89.1,52.4L89.1,52.7C89.9,53.1 91.4,53.9 91.9,54.3C92.9,55.2 93,56.5 92.8,59.1C92.7,60.4 92.2,62.9 91.6,65.3C90.6,69.3 90,69.8 89.3,70C88.9,70.1 88.4,70.2 87.8,70.2C86.7,70.2 85.2,70.2 84.2,70C83.9,70.9 83.2,73.3 81.8,76.3C81.9,76.3 81.9,76.2 82,76.2C83.8,75.3 87.2,73.8 87.4,73.7L90.1,72.5L88.7,75.1C88.7,75.2 85.7,80.8 83.8,84.5C82,88.1 78.6,88.9 76.5,89.4C76.2,89.5 75.9,89.5 75.7,89.6C74.2,90 71.3,90.7 68.6,91.4L68.5,91.4C66.9,92.4 65.1,93.3 63.2,94C56.2,96.7 48.7,96.5 42,94C40.9,94.1 39.5,94.3 37.6,94.5C36.8,94.6 36,94.6 35.2,94.6C28.8,94.6 25.4,91.3 22.9,88.2C20.2,84.8 17,79.7 16.9,79.5L15,76.6L18.2,78C19.7,78.7 24.3,80.8 25.5,81.4C25.6,81.4 25.7,81.3 25.8,81.3C23.6,78.2 21.9,74.7 20.6,70.8C19.5,71.1 17.9,71.4 16.6,71.4C16.1,71.4 15.7,71.4 15.4,71.3C14.7,71.1 13.9,70.5 12.8,66.6C12.2,64.3 11.7,61.9 11.5,60.6C11.2,58.1 11.3,56.8 12.3,55.9C12.9,55.4 15,54.3 15.4,54.1L15.3,53.3C8.7,57.2 4.7,60.7 4.6,60.7L0,64.9L3.4,59.6C6.1,55.4 9.2,51.9 12,49.3C11.9,49.3 11.8,49.2 11.7,49.2L11,48.9L10.2,48.5L10,48.2C9.9,48.1 9.9,48 9.8,47.9L9.7,47.7C9.6,47.5 9.5,47.4 9.4,47.2C9.2,46.9 9.1,46.5 9,46.2C8.7,45.5 8.5,44.9 8.3,44.2C8,42.8 7.7,41.4 7.6,40C7.4,38.6 7.4,37.2 7.5,35.8C7.5,35.1 7.6,34.4 7.7,33.7C7.8,33.3 7.8,33 7.9,32.7C8,32.3 8,32 8.2,31.6L8.3,31.3L8.5,31.1C9.6,30.2 10.8,29.6 12,29C13,28.5 14,28.1 15,27.7C17.9,19.7 22.8,12.7 29.3,7.7C35.9,2.7 43.8,0 52,0C60.2,0 68.1,2.7 74.8,7.8C81.3,12.7 86.2,19.8 89.1,27.8C90.1,28.2 91.1,28.6 92.2,29.1C93.4,29.7 94.6,30.3 95.7,31.2L95.9,31.4L96,31.7C96.1,32.1 96.2,32.4 96.2,32.8C96.3,33.1 96.3,33.5 96.4,33.8C96.5,34.4 96.6,35.1 96.6,35.8ZM90.8,59C91,56.6 90.8,56 90.6,55.8C90.4,55.6 89.5,55.1 88.7,54.7L87.4,64.1C87.4,64.3 87.3,64.4 87.1,64.6L85.2,65.9C85,66.7 85,67 84.8,67.8C85.9,68.1 87.7,68.3 88.6,68.1C89.3,67.2 90.6,62 90.8,59ZM88.3,50.5L89.7,45C87.6,44.5 83.8,43.7 78.5,43C75.8,44.9 72.9,46.5 70,47.7C78.9,48.5 85.4,49.8 88.3,50.5ZM86.1,63.6L87.7,52.2C87,52 86,51.8 84.9,51.6L83.5,62C83.5,62.2 83.4,62.4 83.2,62.5L77.7,66.4C77.6,66.5 77.4,66.5 77.2,66.5L60.5,64.6C60.2,64.6 60,64.4 59.9,64.1L56.9,54.2C56.1,54 54,53.5 52.2,53.5C50.4,53.5 48.3,54 47.5,54.2L44.5,64.1C44.4,64.3 44.3,64.4 44.2,64.5C44.1,64.5 44.1,64.5 44,64.6L27.3,68.3L27.2,68.3C27.1,68.3 26.9,68.3 26.8,68.2L21.3,64.3C21.1,64.2 21,64 21,63.8L19.5,51.7C18.9,51.8 18.3,51.9 17.8,52C17.4,52.2 17.1,52.4 16.7,52.6L18.3,65.4L26.4,71L46.7,66.5L49.7,56.6C49.8,56.4 50,56.2 50.2,56.1C51,56 51.6,55.9 52.2,55.9C52.8,55.9 53.4,56 54.2,56.1C54.5,56.1 54.7,56.3 54.7,56.6L57.8,66.7L78.2,69L86.1,63.6ZM82.2,61.5L83.6,51.4C79.5,50.7 73.6,49.8 66.3,49.2C59.7,51.5 54.2,52.2 53.8,52.2L53.4,52.2C55.5,52.4 57.5,52.9 57.6,53C57.8,53.1 58,53.2 58.1,53.5L61.1,63.3L77.1,65.1L82.2,61.5ZM83.3,67.2L82.6,67.7L80.8,69L78.8,70.4C78.7,70.5 78.5,70.5 78.3,70.5L58.6,68.3L57.2,68.1C56.9,68.1 56.7,67.9 56.6,67.6L53.5,57.5C53,57.4 52.5,57.4 52.1,57.4C51.7,57.4 51.3,57.4 50.7,57.5L47.7,67.4C47.6,67.6 47.4,67.8 47.2,67.9L26.2,72.6L26.1,72.6C26,72.6 25.8,72.6 25.7,72.5L24.9,72L22.6,70.4L21.7,69.8C21.8,70 21.8,70.2 21.9,70.4C22.1,70.9 23.8,76 27.4,81C31.3,79.9 34.6,78.8 35.6,78.5C37.8,75.2 40.9,71.8 43.1,71.7L44.3,71.7C45.4,71.7 46.4,71.8 47.3,71.9C46.5,71.2 46.3,70.3 46.2,69.9C46.2,69.9 49,72.1 52.6,71.6C56.2,71.1 58.4,69.1 58.4,69.1C58.4,69.1 58.4,70.6 56.8,71.8C59.8,70.9 61,70.6 61.9,70.6C62.8,70.6 63.3,71 63.7,71.3C63.8,71.4 63.9,71.4 63.9,71.5C66.2,73.3 69,75.5 69.8,76.1C70.7,76.2 73.7,76.5 75.6,76.7C76.7,76.8 77.7,76.9 78.6,76.9L79.5,76.9C80.7,74.5 81.8,71.9 82.8,68.9C83,68.1 83.2,67.7 83.3,67.2ZM76,42.3C74.4,42.2 72.8,42.1 71.2,42C69,41.9 66.8,41.8 64.6,41.7C64.5,41.9 64.2,42.3 63.8,42.8C62.6,44.4 60.2,47.4 57.2,49.9C61.5,49.1 69,47.2 75.5,42.7C75.7,42.5 75.9,42.4 76,42.3ZM61.6,42.7C61.8,42.5 62,42.3 62.1,42.1C60.5,42.3 59,42.5 57.4,42.8C52.2,43.8 47.3,45.4 43.3,47.1C46.1,47 49.1,46.9 52.3,46.9C54.2,46.9 56,46.9 57.8,47C59.3,45.4 60.6,43.9 61.6,42.7ZM63.3,92.1C61.1,91.9 59.1,91 57.5,89.5C57.4,89.4 57.3,89.3 57.3,89.3C56.5,89.5 55.7,89.6 54.9,89.6L53.2,89.6C51.1,92.8 46.4,93.4 46.1,93.4C45.9,93.4 45.7,93.4 45.5,93.5C48.1,94.2 50.8,94.5 53.5,94.4C56.2,94.1 59.7,93.5 63.3,92.1ZM54.9,88.5C55.4,88.5 55.9,88.4 56.4,88.3C55.7,87.6 55.1,87 54.7,86.4C54.5,86.9 54.2,87.6 53.8,88.5L54.9,88.5ZM53.3,50.5C54.2,50 55,49.4 55.8,48.7L52.3,48.7C47.4,48.7 42.8,48.9 38.7,49.2C34.5,51.2 32,52.9 31.9,53L27.9,55.7L30.6,51.8C31.1,51.1 31.5,50.5 32,49.9C27.4,50.4 23.6,51 20.7,51.6L22.2,63.5L27.3,67L43.3,63.4L46.3,53.5C46.4,53.3 46.5,53.2 46.6,53.1C46.6,53.1 46.7,53 46.8,53C46.9,53 48.5,52.5 50.3,52.3L53.3,50.5ZM55.1,41.4L51.7,41.4C50.1,41.4 48.4,41.4 46.8,41.5L43.8,42.9C43.3,43.1 39.4,45.1 35.6,48.7C39,46.9 43.9,44.6 49.7,42.8C51.4,42.3 53.2,41.8 55.1,41.4ZM33.9,47.7C35.5,46.1 37.1,44.9 38.5,43.8C33,45.1 27.9,47 23.5,49C26.4,48.6 29.9,48.1 33.9,47.7ZM35,42.9C36.8,42.4 38.8,41.9 40.7,41.5C37.9,41.6 35.1,41.7 32.3,41.9C30.7,42 29.1,42.1 27.4,42.2C26.6,42.3 25.8,42.3 25,42.4C24.8,42.4 24.5,42.4 24.3,42.5C22.2,43.8 14.1,48.8 8.5,55.5C14,51.8 23.4,46.2 35,42.9ZM20.1,69.1C20,68.8 19.9,68.4 19.8,68.1L17.3,66.4C17.1,66.3 17,66.1 17,65.9L15.8,56C14.9,56.5 13.9,57.1 13.6,57.3C13.4,57.5 13.2,58 13.4,60.4C13.7,63.3 15.2,68.8 16,69.6C16.9,69.7 19.1,69.4 20.1,69.1ZM18.2,44.3C16.8,44.6 15.6,44.8 14.8,45L15.2,46.5C16.4,45.6 17.4,44.9 18.2,44.3Z" style="fill:rgb(45,49,54);fill-rule:nonzero;"/>
            </g>
        </g>
    </g>
</svg>
