<?xml version="1.0" encoding="UTF-8" standalone="no"?>
<!DOCTYPE svg PUBLIC "-//W3C//DTD SVG 1.1//EN" "http://www.w3.org/Graphics/SVG/1.1/DTD/svg11.dtd">
<svg width="100%" height="100%" viewBox="0 0 379 334" version="1.1" xmlns="http://www.w3.org/2000/svg" xmlns:xlink="http://www.w3.org/1999/xlink" xml:space="preserve" xmlns:serif="http://www.serif.com/" style="fill-rule:evenodd;clip-rule:evenodd;stroke-linejoin:round;stroke-miterlimit:2;">
    <g id="puddle" transform="matrix(1,0,0,1,0.2,1)">
        <path d="M296.94,295.43C296.94,315.963 249.38,332.606 190.72,332.606C132.05,332.606 84.49,315.963 84.49,295.43C84.49,274.897 132.048,258.25 190.72,258.25C249.38,258.25 296.94,274.9 296.94,295.43Z" style="fill:rgb(156,218,241);fill-rule:nonzero;"/>
    </g>
    <g id="shadow-legs" transform="matrix(1,0,0,1,0.2,1)">
        <path d="M161.85,331.22L161.85,304.72C161.85,301.298 161.231,298.436 160.197,296.019C167.05,301.341 167.513,314.714 167.513,314.714L167.513,331.718C173.679,332.199 180.047,332.491 186.566,332.579L186.394,315.659C185.45,292.529 165.625,289.698 165.625,289.698C158.38,288.053 158.488,291.689 159.216,294.038C152.108,281.916 133.058,283.482 133.058,283.482C126.447,285.839 132.583,290.089 132.583,290.089C142.97,293.864 143.913,305.194 143.913,305.194L143.913,328.816C149.633,329.796 155.623,330.606 161.853,331.216L161.85,331.22Z" style="fill:rgb(125,187,230);fill-rule:nonzero;"/>
        <path d="M245.4,283.48C245.4,283.48 226.347,281.914 219.24,294.039C219.968,291.689 220.079,288.05 212.832,289.696C212.832,289.696 193.008,292.528 192.064,315.657L191.89,332.603C198.399,332.578 204.766,332.349 210.944,331.932L210.944,314.713C210.944,314.713 211.409,301.34 218.26,296.018C217.226,298.435 216.607,301.296 216.607,304.719L216.607,331.494C222.821,330.95 228.818,330.215 234.544,329.306L234.544,305.193C234.544,305.193 235.488,293.863 245.874,290.088C245.874,290.078 252.004,285.828 245.394,283.468L245.4,283.48Z" style="fill:rgb(125,187,230);fill-rule:nonzero;"/>
    </g>
    <g id="cat" transform="matrix(1,0,0,1,0.2,1)">
        <path d="M378.18,141.32L378.46,139.931C347.298,133.7 315.319,133.637 295.973,134.441C299.151,122.99 300.107,109.814 300.107,95.121C300.107,74.048 292.19,57.19 279.337,44.362C281.583,37.112 284.583,21.011 276.341,0.399C276.341,0.399 261.8,-4.218 228.91,17.795C216.026,14.575 202.314,12.985 188.582,12.985C173.473,12.985 158.206,14.909 143.967,18.815C110.027,-4.339 95.044,0.404 95.044,0.404C85.264,24.861 91.311,42.97 93.148,47.467C81.653,59.873 74.635,75.71 74.635,95.126C74.635,109.784 76.304,122.934 80.38,134.363C60.869,133.653 30.057,133.926 0.007,139.935L0.283,141.324C30.514,135.278 61.52,135.068 80.912,135.802C81.81,138.168 82.811,140.463 83.933,142.681C64.756,143.299 32.011,145.743 0.63,154.596L1.017,155.956C32.646,147.038 65.675,144.655 84.666,144.074C96.124,165.432 118.714,179.226 158.902,183.558C153.198,187.391 147.379,193.907 145.021,204.932C137.248,208.65 112.642,217.725 97.879,192.333C97.879,192.333 89.615,177.224 73.797,176.041C73.797,176.041 58.453,175.806 72.738,185.603C72.738,185.603 83.005,190.441 90.089,208.622C90.089,208.622 99.33,239.632 143.924,229.683L143.924,261.715C143.924,261.715 142.981,273.045 132.594,276.82C132.594,276.82 126.457,281.069 133.069,283.426C133.069,283.426 161.861,285.787 161.861,262.188L161.861,227.259C161.861,227.259 160.719,213.407 167.524,208.592L167.524,265.963C167.524,265.963 167.054,279.651 159.973,284.844C159.973,284.844 155.25,293.338 165.636,290.981C165.636,290.981 185.46,288.149 186.405,265.02L186.854,206.96L191.619,206.96L192.072,265.02C193.015,288.149 212.84,290.981 212.84,290.981C223.223,293.338 218.503,284.844 218.503,284.844C211.423,279.651 210.952,265.963 210.952,265.963L210.952,209.087C217.753,214.383 216.615,227.258 216.615,227.258L216.615,262.187C216.615,285.787 245.408,283.425 245.408,283.425C252.014,281.068 245.882,276.819 245.882,276.819C235.496,273.044 234.552,261.714 234.552,261.714L234.552,215.928C234.552,198.074 227.034,188.619 219.682,183.628C262.541,179.378 283.108,165.539 292.585,144.037C311.358,144.553 345.142,146.84 377.458,155.956L377.842,154.596C345.711,145.533 312.15,143.188 293.187,142.636C294.085,140.464 294.869,138.205 295.565,135.881C314.815,135.081 346.945,135.091 378.225,141.341L378.18,141.32Z" style="fill-rule:nonzero;"/>
    </g>
    <g id="face" transform="matrix(1,0,0,1,0.2,1)">
        <path d="M258.19,94.132C267.421,102.495 272.821,112.594 272.821,123.475C272.821,174.279 234.949,175.656 188.236,175.656C141.515,175.656 103.647,168.621 103.647,123.475C103.647,112.666 108.971,102.63 118.088,94.301C133.296,80.42 159.034,87.77 188.235,87.77C217.305,87.766 242.955,80.341 258.185,94.127L258.19,94.132Z" style="fill:rgb(244,203,178);fill-rule:nonzero;"/>
    </g>
    <g id="eyes" transform="matrix(1,0,0,1,0.2,1)">
        <path d="M160.1,126.06C160.1,140.054 152.22,151.396 142.5,151.396C132.78,151.396 124.9,140.054 124.9,126.06C124.9,112.068 132.78,100.73 142.5,100.73C152.22,100.74 160.1,112.07 160.1,126.06ZM254.53,126.06C254.53,140.054 246.65,151.396 236.93,151.396C227.21,151.396 219.33,140.054 219.33,126.06C219.33,112.068 227.21,100.73 236.93,100.73C246.65,100.74 254.53,112.07 254.53,126.06Z" style="fill:white;fill-rule:nonzero;"/>
    </g>
    <g transform="matrix(1,0,0,1,0.2,1)">
        <path id="pupils" d="M154.46,126.38C154.46,135.708 149.2,143.267 142.726,143.267C136.252,143.267 130.993,135.708 130.993,126.38C130.993,117.049 136.248,109.486 142.726,109.486C149.196,109.486 154.456,117.046 154.456,126.376L154.46,126.38ZM248.88,126.38C248.88,135.708 243.62,143.267 237.146,143.267C230.672,143.267 225.413,135.708 225.413,126.38C225.413,117.049 230.668,109.486 237.146,109.486C243.616,109.486 248.876,117.046 248.876,126.376L248.88,126.38Z" style="fill:rgb(173,92,81);fill-rule:nonzero;"/>
        <circle id="nose" cx="188.5" cy="148.56" r="4.401" style="fill:rgb(173,92,81);"/>
        <path id="mouth" d="M178.23,159.69C177.97,158.952 178.358,158.145 179.091,157.885C179.828,157.625 180.637,158.013 180.896,158.746C182.03,161.944 185.063,164.092 188.447,164.092C191.831,164.092 194.864,161.945 195.998,158.746C196.258,158.008 197.065,157.625 197.803,157.885C198.541,158.145 198.924,158.952 198.665,159.69C197.136,164.014 193.026,166.919 188.447,166.919C183.868,166.919 179.767,164.029 178.237,159.699L178.23,159.69Z" style="fill:rgb(173,92,81);fill-rule:nonzero;"/>
    </g>
    <g id="octo" transform="matrix(1,0,0,1,0.2,1)">
        <path d="M80.641,179.82C80.641,180.994 79.265,181.942 77.571,181.942C75.878,181.942 74.501,180.994 74.501,179.82C74.501,178.645 75.878,177.693 77.571,177.693C79.265,177.693 80.641,178.643 80.641,179.823L80.641,179.82ZM89.141,184.54C89.141,185.714 87.765,186.662 86.071,186.662C84.378,186.662 83.001,185.714 83.001,184.54C83.001,183.365 84.378,182.413 86.071,182.413C87.765,182.413 89.141,183.363 89.141,184.543L89.141,184.54ZM94.334,190.68C94.334,191.854 92.958,192.802 91.264,192.802C89.571,192.802 88.194,191.854 88.194,190.68C88.194,189.505 89.571,188.553 91.264,188.553C92.958,188.553 94.334,189.503 94.334,190.683L94.334,190.68ZM99.054,197.76C99.054,198.934 97.678,199.882 95.984,199.882C94.291,199.882 92.914,198.934 92.914,197.76C92.914,196.585 94.291,195.633 95.984,195.633C97.678,195.633 99.054,196.583 99.054,197.763L99.054,197.76ZM104.242,204.37C104.242,205.544 102.866,206.492 101.172,206.492C99.479,206.492 98.102,205.544 98.102,204.37C98.102,203.195 99.479,202.243 101.172,202.243C102.866,202.243 104.242,203.193 104.242,204.373L104.242,204.37ZM111.332,210.03C111.332,211.204 109.956,212.152 108.262,212.152C106.569,212.152 105.192,211.204 105.192,210.03C105.192,208.855 106.569,207.903 108.262,207.903C109.956,207.903 111.332,208.853 111.332,210.033L111.332,210.03ZM121.242,213.81C121.242,214.984 119.866,215.932 118.172,215.932C116.479,215.932 115.102,214.984 115.102,213.81C115.102,212.635 116.479,211.683 118.172,211.683C119.866,211.683 121.242,212.633 121.242,213.813L121.242,213.81ZM131.112,213.81C131.112,214.984 129.736,215.932 128.042,215.932C126.349,215.932 124.972,214.984 124.972,213.81C124.972,212.635 126.349,211.683 128.042,211.683C129.736,211.683 131.112,212.633 131.112,213.813L131.112,213.81ZM141.122,212.17C141.122,213.344 139.746,214.292 138.052,214.292C136.359,214.292 134.982,213.344 134.982,212.17C134.982,210.995 136.359,210.043 138.052,210.043C139.746,210.043 141.122,210.993 141.122,212.173L141.122,212.17Z" style="fill:rgb(195,228,216);fill-rule:nonzero;"/>
    </g>
    <g id="drop" transform="matrix(1,0,0,1,0.2,1)">
        <path d="M69.369,186.12L66.303,196.803C66.303,196.803 65.503,200.664 69.143,201.349C72.943,201.275 72.629,197.722 72.366,196.568L69.369,186.12Z" style="fill:rgb(156,218,241);fill-rule:nonzero;"/>
    </g>
</svg>
