<?xml version="1.0" encoding="UTF-8" standalone="no"?>
<!DOCTYPE svg PUBLIC "-//W3C//DTD SVG 1.1//EN" "http://www.w3.org/Graphics/SVG/1.1/DTD/svg11.dtd">
<svg width="100%" height="100%" viewBox="0 0 800 800" version="1.1" xmlns="http://www.w3.org/2000/svg" xmlns:xlink="http://www.w3.org/1999/xlink" xml:space="preserve" xmlns:serif="http://www.serif.com/" style="fill-rule:evenodd;clip-rule:evenodd;stroke-linejoin:round;stroke-miterlimit:2;">
    <g transform="matrix(1.02445,0,0,2.49844,-84.0059,-138.773)">
        <ellipse cx="472.453" cy="215.643" rx="390.452" ry="160.1" style="fill:rgb(23,66,114);"/>
    </g>
    <g transform="matrix(0.605027,0,0,0.605027,25.1037,158.022)">
        <path d="M919.46,101.46C970.31,56.46 978.15,69.46 1001.58,75.9C1010.18,78.9 1019.25,79.81 1028.16,81.48C1035.29,85.39 1041.45,90.79 1047.9,95.74C1072.73,116.42 1060.47,111.59 1074.61,133.15C1084.86,136.37 1093.48,142.9 1102.13,149.06C1117.02,159.6 1136.65,163.14 1149,177.29C1146.4,181.14 1142.79,184.16 1140,187.85C1138.22,193.94 1138.22,200.91 1133.82,205.92C1127.66,212.92 1119.48,217.74 1112.32,223.63C1081.98,249.01 1038.84,218 1020.13,223.11C1013.13,235.43 1012.27,250.58 1008.83,264.24C943.83,358.02 964.95,363.57 947.39,386.31C939.87,395.61 935.83,407.41 927.6,416.11C919.87,420.11 911.98,424.45 907.55,432.36C898.05,457.36 895.44,520.15 895.41,520.36C893.92,538.82 897.12,557.14 899.79,575.36C903.41,598.08 897.85,623.27 911.46,643.56C917.38,650.93 915.54,662.33 923.17,668.44C936.17,675.51 951.17,661.83 964.22,669.44C969.75,672.25 976.38,678.38 973,685.22C957.31,705.03 909.51,704.67 884.54,699.14C878.03,698.46 877.59,691.41 875.91,686.56C870.96,681.21 864.69,675.66 865.11,667.69C865.95,651.83 846.76,641.87 849.93,625.62C854.93,613.95 851.11,601.19 845.22,590.68C844.77,586.56 844.4,582.52 843.93,578.49C837.04,578.3 831.77,573.98 826.45,570.23C826.29,557.67 821.68,545.83 821.26,533.35C816.96,534.35 812.63,535.08 808.34,535.76C806.11,546.46 801.65,556.55 799.79,567.35C791.63,612.41 778.71,619.77 782.02,667.27C782.72,673.51 783.25,681.11 789.02,684.99C800.02,692.17 814.55,688.45 825.64,695.31C838.15,702.13 816.96,726.16 790.54,721.63C780.16,719.85 769.78,721.06 759.45,721.74C748.73,717.49 734.45,713.35 731.82,700.37C726.08,684.55 746.06,676.98 730.36,636.97C728.89,637.44 726,638.33 724.56,638.77C722.821,633.631 720.168,628.847 716.73,624.65C720.73,607.74 716.83,590.18 708.34,575.37C705.9,557.73 703.25,538.37 710.91,521.63C714.42,510.39 714.24,498.09 719.98,487.55C694.5,479.87 665.98,479.27 644.04,462.55C619.4,449 594.65,435.55 569.17,423.55C557.82,432.67 545.51,440.55 534.6,450.23C525.37,465.54 522.2,483.71 512.21,498.65C504.67,509.95 496.62,521.06 491.66,533.85C485.5,549.45 474.08,562.29 468.26,578.07C457.04,606.72 454.63,641.64 472.71,668.07C479.71,677.43 484.71,689.59 496.07,694.54C509.36,700.05 524.64,694.44 537.85,700.31C541.73,707.07 546.29,715.64 542.85,723.48C529.64,730.48 513.99,727.48 499.65,728.28C480.51,728.7 461.2,733.05 442.16,729.28C430.58,726.95 424.42,715.68 418.1,706.87C409.79,694.29 416.63,678.19 410.53,664.96C405.68,655.68 406.53,644.88 403.45,635.13C399.91,627.13 393.78,618.69 397.68,609.59C404.63,590.93 410.19,571.53 411.86,551.59C411.34,542.99 411.1,534.37 410.66,525.79C407.12,517.22 403.08,506.9 393.78,503.36C386.51,501.29 381.06,507.87 376.27,512.19C354.27,533.92 325.6,548.6 307.07,573.9C292.36,593.01 261.86,648.81 276.27,665.27C282.61,670.78 292.02,669.46 298.97,673.97C302.97,676.49 304.05,681.37 305.78,685.51C294.78,692.72 281.98,696.6 269.06,698.51C259.54,698.67 250.13,696.51 240.64,696.36C234.82,690.86 226.25,686.43 225.13,677.75C224.68,667.75 216.45,661.11 213.28,652.17C210.79,634.27 217.28,616.44 227.2,601.71C233.38,595.37 239.2,588.47 242.06,579.93C247.27,568.47 245.15,552.43 258.13,545.93C270.05,539.72 277.5,528.37 287.96,520.32C290.823,507.31 294.558,494.508 299.14,482C301.29,473.87 314.14,472.51 312.48,463C312.24,454.79 315.08,447 315.91,439C311.85,426.87 308.5,414.49 305.64,402C301.24,406.32 295.57,410 293.21,416C293.74,421.58 295.21,427 296.31,432.51C270.21,446.16 231.95,420.73 222.07,419.67C206.64,417.44 191.35,414.29 176.07,411.46C166.84,409.57 156.96,408 149.52,401.76C138.9,392.88 123.41,398.67 111.95,392.27C101.41,383 94.86,370.12 88.28,358C84.14,352.31 75.94,353.1 70.35,356C63.59,356.5 56.83,356.79 50.09,357C46.21,342.71 53.84,329.74 62.09,318.78C69.85,304.65 86.89,299.57 101.7,296.89C123.61,296.18 145.45,293.96 167.26,291.73C236.26,287.38 276.9,295.12 317.33,267.3C326.16,261.24 337.22,261.42 347,257.86C371.21,249.42 444,194.4 531.45,202.37C565.45,204.44 599.27,197.49 633.24,200.22C856.26,215.13 863.19,150.69 919.46,101.46Z" style="fill:rgb(115,167,226);fill-rule:nonzero;"/>
    </g>
</svg>
